<?xml version="1.0" encoding="utf-8"?>
<!-- Generator: Adobe Illustrator 23.1.0, SVG Export Plug-In . SVG Version: 6.00 Build 0)  -->
<svg version="1.1" id="Слой_1" xmlns="http://www.w3.org/2000/svg" xmlns:xlink="http://www.w3.org/1999/xlink" x="0px" y="0px"
	 viewBox="0 0 20 20" style="enable-background:new 0 0 20 20;" xml:space="preserve">
<style type="text/css">
	.st0{fill-rule:evenodd;clip-rule:evenodd;fill:#FFFFFF;}
	.st1{fill:#FFFFFF;}
</style>
<path class="st0" d="M18.2,3.9c0.6,0,1,0.2,1.4,0.7C20,5.1,20.1,5.8,20,6.4L19,13.1c-0.2,1.3-1.3,2.2-2.5,2.2H5.6
	c-1.3,0-2.4-1-2.5-2.4L2.1,1.8L0.6,1.5C0.2,1.4-0.1,1,0,0.6C0.1,0.2,0.5-0.1,0.9,0l2.4,0.4c0.3,0.1,0.6,0.3,0.6,0.7l0.2,2.3
	c0,0.3,0.3,0.6,0.6,0.6H18.2z M12.1,9.2h2.8c0.4,0,0.7-0.3,0.7-0.8c0-0.4-0.3-0.8-0.7-0.8h-2.8c-0.4,0-0.7,0.3-0.7,0.8
	C11.4,8.9,11.7,9.2,12.1,9.2z"/>
<path class="st1" d="M5.4,16.9c-0.8,0-1.5,0.7-1.5,1.6c0,0.8,0.7,1.5,1.5,1.5c0.8,0,1.5-0.7,1.5-1.5C6.9,17.6,6.3,16.9,5.4,16.9z"/>
<path class="st1" d="M16.7,16.9c-0.8,0-1.5,0.7-1.5,1.6c0,0.8,0.7,1.5,1.5,1.5c0.8,0,1.5-0.7,1.5-1.5C18.2,17.6,17.5,16.9,16.7,16.9
	z"/>
</svg>
