<?xml version="1.0" encoding="utf-8"?>
<!-- Generator: Adobe Illustrator 23.1.0, SVG Export Plug-In . SVG Version: 6.00 Build 0)  -->
<svg version="1.1" id="Слой_1" xmlns="http://www.w3.org/2000/svg" xmlns:xlink="http://www.w3.org/1999/xlink" x="0px" y="0px"
	 viewBox="0 0 20 20" style="enable-background:new 0 0 20 20;" xml:space="preserve">
<style type="text/css">
	.st0{fill:#FFFFFF;}
</style>
<path class="st0" d="M0,8.7C0,3.9,3.8,0,8.6,0c2.3,0,4.5,0.9,6.1,2.5c1.6,1.6,2.5,3.8,2.5,6.1c0,4.8-3.8,8.7-8.6,8.7
	C3.8,17.3,0,13.5,0,8.7z"/>
<path class="st0" d="M17,15.7l2.6,2.1h0c0.5,0.5,0.5,1.4,0,1.9c-0.5,0.5-1.4,0.5-1.9,0l-2.1-2.4c-0.2-0.2-0.3-0.5-0.3-0.8
	c0-0.3,0.1-0.6,0.3-0.8C16,15.3,16.6,15.3,17,15.7z"/>
</svg>
